<svg width="350" height="350" viewBox="0 0 350 350" fill="none" xmlns="http://www.w3.org/2000/svg">
<rect x="0.5" y="0.5" width="349" height="349" rx="99.5" fill="#1E1E1E" stroke="#1E1E1E"/>
<path d="M169.035 292.2C163.835 292.2 159.535 292 156.135 291.6C152.935 291.2 149.735 290.7 146.535 290.1C143.335 289.5 139.435 289 134.835 288.6C130.235 288.2 123.935 288 115.935 288L105.435 210H109.035C112.035 234.6 118.835 253.6 129.435 267C140.235 280.2 154.035 286.8 170.835 286.8C183.235 286.8 193.335 283.3 201.135 276.3C208.935 269.3 212.835 260.2 212.835 249C212.835 244.2 211.935 239.6 210.135 235.2C208.535 230.8 205.735 226.1 201.735 221.1C197.735 216.1 192.435 210.7 185.835 204.9C179.235 198.9 171.035 192.2 161.235 184.8L148.935 175.5C133.935 164.1 123.535 153.9 117.735 144.9C111.935 135.9 109.035 126.1 109.035 115.5C109.035 97.9 115.435 84.1 128.235 74.1C141.235 63.9 158.335 58.8 179.535 58.8C184.735 58.8 188.935 59 192.135 59.4C195.535 59.8 198.735 60.3 201.735 60.9C204.935 61.5 208.635 62 212.835 62.4C217.035 62.8 222.435 63 229.035 63L232.035 123.6H229.035C226.235 105 220.235 90.3 211.035 79.5C201.835 68.7 190.735 63.3 177.735 63.3C168.535 63.3 161.135 66 155.535 71.4C150.135 76.8 147.435 84 147.435 93C147.435 100.8 149.935 108.3 154.935 115.5C160.135 122.5 169.035 130.7 181.635 140.1L194.535 149.7C207.735 159.3 218.135 168.2 225.735 176.4C233.535 184.4 239.135 192.2 242.535 199.8C245.935 207.4 247.635 215.5 247.635 224.1C247.635 237.3 244.335 249 237.735 259.2C231.135 269.4 221.935 277.4 210.135 283.2C198.535 288.8 184.835 291.8 169.035 292.2Z" fill="white"/>
</svg>
